<svg width="6" height="4" viewBox="0 0 6 4" fill="none" xmlns="http://www.w3.org/2000/svg">
<path d="M3.68443 3.70589C3.59804 3.79845 3.49243 3.87248 3.37444 3.92315C3.25644 3.97382 3.12871 4 2.99954 4C2.87037 4 2.74264 3.97382 2.62464 3.92315C2.50665 3.87248 2.40104 3.79845 2.31465 3.70589L0.2365 1.48182C0.117279 1.35416 0.0390384 1.19591 0.0112602 1.02625C-0.0165179 0.856584 0.00735921 0.682798 0.0799982 0.525954C0.152637 0.369109 0.270918 0.23594 0.420505 0.142586C0.570092 0.0492322 0.744563 -0.000297087 0.922769 1.63596e-06L5.07723 1.27276e-06C5.25544 -0.000297481 5.42991 0.0492318 5.57949 0.142585C5.72908 0.235939 5.84736 0.369108 5.92 0.525953C5.99264 0.682798 6.01652 0.856583 5.98874 1.02624C5.96096 1.19591 5.88272 1.35416 5.7635 1.48182L3.68443 3.70589Z" fill="#555555"/>
</svg>
