<svg width="28" height="28" viewBox="0 0 28 28" fill="none" xmlns="http://www.w3.org/2000/svg">
<path fill-rule="evenodd" clip-rule="evenodd" d="M14 6.63636C9.93318 6.63636 6.63636 9.93318 6.63636 14C6.63636 18.0668 9.93318 21.3636 14 21.3636C18.0668 21.3636 21.3636 18.0668 21.3636 14C21.3636 9.93318 18.0668 6.63636 14 6.63636ZM5 14C5 9.02944 9.02944 5 14 5C18.9706 5 23 9.02944 23 14C23 18.9706 18.9706 23 14 23C9.02944 23 5 18.9706 5 14Z" fill="#747474"/>
<path fill-rule="evenodd" clip-rule="evenodd" d="M16.7803 11.2197C17.0732 11.5126 17.0732 11.9874 16.7803 12.2803L12.2803 16.7803C11.9874 17.0732 11.5126 17.0732 11.2197 16.7803C10.9268 16.4874 10.9268 16.0126 11.2197 15.7197L15.7197 11.2197C16.0126 10.9268 16.4874 10.9268 16.7803 11.2197Z" fill="#747474"/>
<path fill-rule="evenodd" clip-rule="evenodd" d="M11.2197 11.2197C11.5126 10.9268 11.9874 10.9268 12.2803 11.2197L16.7803 15.7197C17.0732 16.0126 17.0732 16.4874 16.7803 16.7803C16.4874 17.0732 16.0126 17.0732 15.7197 16.7803L11.2197 12.2803C10.9268 11.9874 10.9268 11.5126 11.2197 11.2197Z" fill="#747474"/>
</svg>
